<?xml version="1.0" standalone="no"?><!DOCTYPE svg PUBLIC "-//W3C//DTD SVG 1.1//EN" "http://www.w3.org/Graphics/SVG/1.1/DTD/svg11.dtd"><svg height="1024" node-id="1" sillyvg="true" template-height="1024" template-width="1024" version="1.1" viewBox="0 0 1024 1024" width="1024" xmlns="http://www.w3.org/2000/svg" xmlns:xlink="http://www.w3.org/1999/xlink"><defs node-id="156"><linearGradient gradientUnits="objectBoundingBox" id="linearGradient-4" node-id="15" spreadMethod="pad" x1="0.5" x2="0.5" y1="0" y2="1"><stop offset="0" stop-color="#ffe971"></stop><stop offset="1" stop-color="#ffe058"></stop></linearGradient><linearGradient gradientUnits="objectBoundingBox" id="linearGradient-10" node-id="32" spreadMethod="pad" x1="0.5" x2="0.5" y1="0.1186253" y2="1"><stop offset="0" stop-color="#ff8b9f"></stop><stop offset="1" stop-color="#ff5166"></stop></linearGradient><linearGradient gradientUnits="objectBoundingBox" id="linearGradient1" node-id="170" spreadMethod="pad" x1="0.5" x2="0.5" y1="0" y2="1"><stop offset="0" stop-color="#ffffff"></stop><stop offset="1" stop-color="#ffedbe"></stop></linearGradient><linearGradient gradientUnits="objectBoundingBox" id="linearGradient-22" node-id="69" spreadMethod="pad" x1="0.5" x2="0.5" y1="0" y2="1"><stop offset="0" stop-color="#ffffff"></stop><stop offset="1" stop-color="#ffedbe"></stop></linearGradient><radialGradient cx="0.5" cy="0.1966899" fx="0.5" fy="0.1966899" gradientUnits="objectBoundingBox" id="radialGradient-1" node-id="5" r="0.9393923" rev="3" spreadMethod="pad"><stop offset="0" stop-color="#ffe476"></stop><stop offset="0.41387266" stop-color="#fcec6c"></stop><stop offset="1" stop-color="#ffb02f"></stop></radialGradient><radialGradient cx="0.5" cy="0" fx="0.5" fy="0" gradientUnits="objectBoundingBox" id="radialGradient1" node-id="191" r="0.98521996" rev="2" spreadMethod="pad"><stop offset="0" stop-color="#ffe476"></stop><stop offset="0.41387266" stop-color="#fff287"></stop><stop offset="1" stop-color="#ffb02f"></stop></radialGradient><radialGradient cx="0.5" cy="0" fx="0.5" fy="0" gradientUnits="objectBoundingBox" id="radialGradient-15" node-id="45" r="0.98521996" rev="1" spreadMethod="pad"><stop offset="0" stop-color="#ffe476"></stop><stop offset="0.41387266" stop-color="#fff287"></stop><stop offset="1" stop-color="#ffb02f"></stop></radialGradient><filter height="975.936" id="filter-3" node-id="10" width="1056.096" x="-8.048008" y="7.616005"><feGaussianBlur color-interpolation-filters="linearRGB" in="SourceAlpha" result="shadowBlurInner1" stdDeviation="64 64"></feGaussianBlur><feOffset color-interpolation-filters="linearRGB" dx="0" dy="16" in="shadowBlurInner1" result="shadowOffsetInner1"></feOffset><feComposite color-interpolation-filters="linearRGB" in="shadowOffsetInner1" in2="SourceAlpha" k1="0" k2="-1" k3="1" k4="0" operator="arithmetic" result="shadowInnerInner1"></feComposite><feColorMatrix color-interpolation-filters="linearRGB" in="shadowInnerInner1" result="result4" type="matrix" values="0 0 0 0 0.96862745 0 0 0 0 0.6862745 0 0 0 0 0.27058825 0 0 0 0.5011456 0"></feColorMatrix></filter><filter height="400.064" id="filter-6" node-id="19" width="415.66504" x="-87.97524" y="-56"><feGaussianBlur color-interpolation-filters="linearRGB" in="SourceGraphic" result="result1" stdDeviation="8 8"></feGaussianBlur></filter><filter height="495.936" id="filter-7" node-id="21" width="511.79053" x="-135.91817" y="-103.936005"><feOffset color-interpolation-filters="linearRGB" dx="0" dy="32" in="SourceAlpha" result="shadowOffsetOuter1"></feOffset><feGaussianBlur color-interpolation-filters="linearRGB" in="shadowOffsetOuter1" result="shadowBlurOuter1" stdDeviation="32 32"></feGaussianBlur><feComposite color-interpolation-filters="linearRGB" in="shadowBlurOuter1" in2="SourceAlpha" operator="out" result="shadowBlurOuter1"></feComposite><feColorMatrix color-interpolation-filters="linearRGB" in="shadowBlurOuter1" result="result4" type="matrix" values="0 0 0 0 0.8909921 0 0 0 0 0.65693504 0 0 0 0 0.20072205 0 0 0 0.6933799 0"></feColorMatrix></filter><filter height="189.05502" id="filter-9" node-id="27" width="217.9322" x="10.790189" y="10.183224"><feGaussianBlur color-interpolation-filters="linearRGB" in="SourceAlpha" result="shadowBlurInner1" stdDeviation="8 8"></feGaussianBlur><feOffset color-interpolation-filters="linearRGB" dx="0" dy="0" in="shadowBlurInner1" result="shadowOffsetInner1"></feOffset><feComposite color-interpolation-filters="linearRGB" in="shadowOffsetInner1" in2="SourceAlpha" k1="0" k2="-1" k3="1" k4="0" operator="arithmetic" result="shadowInnerInner1"></feComposite><feColorMatrix color-interpolation-filters="linearRGB" in="shadowInnerInner1" result="result4" type="matrix" values="0 0 0 0 0.6612584 0 0 0 0 0.08722547 0 0 0 0 0.009827761 0 0 0 1 0"></feColorMatrix></filter><filter height="188.90422" id="filter-12" node-id="36" width="217.9322" x="10.790193" y="10.327531"><feGaussianBlur color-interpolation-filters="linearRGB" in="SourceAlpha" result="shadowBlurInner1" stdDeviation="8 8"></feGaussianBlur><feOffset color-interpolation-filters="linearRGB" dx="0" dy="0" in="shadowBlurInner1" result="shadowOffsetInner1"></feOffset><feComposite color-interpolation-filters="linearRGB" in="shadowOffsetInner1" in2="SourceAlpha" k1="0" k2="-1" k3="1" k4="0" operator="arithmetic" result="shadowInnerInner1"></feComposite><feColorMatrix color-interpolation-filters="linearRGB" in="shadowInnerInner1" result="result4" type="matrix" values="0 0 0 0 0.6612584 0 0 0 0 0.08722547 0 0 0 0 0.009827761 0 0 0 1 0"></feColorMatrix></filter><filter height="448" id="filter-13" node-id="41" width="463.93604" x="528.032" y="344"><feGaussianBlur color-interpolation-filters="linearRGB" in="SourceGraphic" result="result1" stdDeviation="48 48"></feGaussianBlur></filter><filter height="448" id="filter-14" node-id="43" width="463.93604" x="48.031998" y="344"><feGaussianBlur color-interpolation-filters="linearRGB" in="SourceGraphic" result="result1" stdDeviation="48 48"></feGaussianBlur></filter><filter height="399.98395" id="filter-17" node-id="50" width="399.984" x="47.904" y="639.904"><feOffset color-interpolation-filters="linearRGB" dx="0" dy="0" in="SourceAlpha" result="shadowOffsetOuter1"></feOffset><feGaussianBlur color-interpolation-filters="linearRGB" in="shadowOffsetOuter1" result="shadowBlurOuter1" stdDeviation="32 32"></feGaussianBlur><feColorMatrix color-interpolation-filters="linearRGB" in="shadowBlurOuter1" result="result3" type="matrix" values="0 0 0 0 0.88884836 0 0 0 0 0.59170264 0 0 0 0 0.17878589 0 0 0 1 0"></feColorMatrix></filter><filter height="383.96802" id="filter-18" node-id="54" width="383.96802" x="56.016006" y="648.016"><feGaussianBlur color-interpolation-filters="linearRGB" in="SourceAlpha" result="shadowBlurInner1" stdDeviation="16 16"></feGaussianBlur><feOffset color-interpolation-filters="linearRGB" dx="0" dy="16" in="shadowBlurInner1" result="shadowOffsetInner1"></feOffset><feComposite color-interpolation-filters="linearRGB" in="shadowOffsetInner1" in2="SourceAlpha" k1="0" k2="-1" k3="1" k4="0" operator="arithmetic" result="shadowInnerInner1"></feComposite><feColorMatrix color-interpolation-filters="linearRGB" in="shadowInnerInner1" result="result4" type="matrix" values="0 0 0 0 1 0 0 0 0 0.7527772 0 0 0 0 0.1876965 0 0 0 0.75659436 0"></feColorMatrix></filter><filter height="399.98395" id="filter-20" node-id="60" width="399.984" x="591.904" y="639.904"><feOffset color-interpolation-filters="linearRGB" dx="0" dy="0" in="SourceAlpha" result="shadowOffsetOuter1"></feOffset><feGaussianBlur color-interpolation-filters="linearRGB" in="shadowOffsetOuter1" result="shadowBlurOuter1" stdDeviation="32 32"></feGaussianBlur><feColorMatrix color-interpolation-filters="linearRGB" in="shadowBlurOuter1" result="result3" type="matrix" values="0 0 0 0 0.88884836 0 0 0 0 0.59170264 0 0 0 0 0.17878589 0 0 0 1 0"></feColorMatrix></filter><filter height="383.96802" id="filter-21" node-id="64" width="383.96802" x="600.016" y="648.016"><feGaussianBlur color-interpolation-filters="linearRGB" in="SourceAlpha" result="shadowBlurInner1" stdDeviation="16 16"></feGaussianBlur><feOffset color-interpolation-filters="linearRGB" dx="0" dy="16" in="shadowBlurInner1" result="shadowOffsetInner1"></feOffset><feComposite color-interpolation-filters="linearRGB" in="shadowOffsetInner1" in2="SourceAlpha" k1="0" k2="-1" k3="1" k4="0" operator="arithmetic" result="shadowInnerInner1"></feComposite><feColorMatrix color-interpolation-filters="linearRGB" in="shadowInnerInner1" result="result4" type="matrix" values="0 0 0 0 1 0 0 0 0 0.7527772 0 0 0 0 0.1876965 0 0 0 0.75659436 0"></feColorMatrix></filter><filter height="432" id="filter-24" node-id="73" width="432" x="-96" y="-96"><feOffset color-interpolation-filters="linearRGB" dx="0" dy="0" in="SourceAlpha" result="shadowOffsetOuter1"></feOffset><feGaussianBlur color-interpolation-filters="linearRGB" in="shadowOffsetOuter1" result="shadowBlurOuter1" stdDeviation="32 32"></feGaussianBlur><feColorMatrix color-interpolation-filters="linearRGB" in="shadowBlurOuter1" result="result3" type="matrix" values="0 0 0 0 0.88884836 0 0 0 0 0.59170264 0 0 0 0 0.17878589 0 0 0 1 0"></feColorMatrix></filter><filter height="400.07996" id="filter-25" node-id="77" width="400.07996" x="-79.92" y="-79.92"><feGaussianBlur color-interpolation-filters="linearRGB" in="SourceAlpha" result="shadowBlurInner1" stdDeviation="16 16"></feGaussianBlur><feOffset color-interpolation-filters="linearRGB" dx="0" dy="0" in="shadowBlurInner1" result="shadowOffsetInner1"></feOffset><feComposite color-interpolation-filters="linearRGB" in="shadowOffsetInner1" in2="SourceAlpha" k1="0" k2="-1" k3="1" k4="0" operator="arithmetic" result="shadowInnerInner1"></feComposite><feColorMatrix color-interpolation-filters="linearRGB" in="shadowInnerInner1" result="result4" type="matrix" values="0 0 0 0 1 0 0 0 0 0.88058794 0 0 0 0 0.5372549 0 0 0 0.50072646 0"></feColorMatrix></filter><filter height="179.74156" id="filter-27" node-id="83" width="179.74156" x="30.203075" y="30.203075"><feGaussianBlur color-interpolation-filters="linearRGB" in="SourceAlpha" result="shadowBlurInner1" stdDeviation="16 16"></feGaussianBlur><feOffset color-interpolation-filters="linearRGB" dx="0" dy="0" in="shadowBlurInner1" result="shadowOffsetInner1"></feOffset><feComposite color-interpolation-filters="linearRGB" in="shadowOffsetInner1" in2="SourceAlpha" k1="0" k2="-1" k3="1" k4="0" operator="arithmetic" result="shadowInnerInner1"></feComposite><feColorMatrix color-interpolation-filters="linearRGB" in="shadowInnerInner1" result="result4" type="matrix" values="0 0 0 0 0.32266015 0 0 0 0 0 0 0 0 0 0.09761147 0 0 0 1 0"></feColorMatrix></filter><filter height="432" id="filter-29" node-id="89" width="432" x="-96" y="-96"><feOffset color-interpolation-filters="linearRGB" dx="0" dy="0" in="SourceAlpha" result="shadowOffsetOuter1"></feOffset><feGaussianBlur color-interpolation-filters="linearRGB" in="shadowOffsetOuter1" result="shadowBlurOuter1" stdDeviation="32 32"></feGaussianBlur><feColorMatrix color-interpolation-filters="linearRGB" in="shadowBlurOuter1" result="result3" type="matrix" values="0 0 0 0 0.88884836 0 0 0 0 0.59170264 0 0 0 0 0.17878589 0 0 0 1 0"></feColorMatrix></filter><filter height="400.07996" id="filter-30" node-id="93" width="400.07996" x="-79.92" y="-79.92"><feGaussianBlur color-interpolation-filters="linearRGB" in="SourceAlpha" result="shadowBlurInner1" stdDeviation="16 16"></feGaussianBlur><feOffset color-interpolation-filters="linearRGB" dx="0" dy="0" in="shadowBlurInner1" result="shadowOffsetInner1"></feOffset><feComposite color-interpolation-filters="linearRGB" in="shadowOffsetInner1" in2="SourceAlpha" k1="0" k2="-1" k3="1" k4="0" operator="arithmetic" result="shadowInnerInner1"></feComposite><feColorMatrix color-interpolation-filters="linearRGB" in="shadowInnerInner1" result="result4" type="matrix" values="0 0 0 0 1 0 0 0 0 0.88058794 0 0 0 0 0.5372549 0 0 0 0.50072646 0"></feColorMatrix></filter><filter height="179.74156" id="filter-32" node-id="99" width="179.74156" x="30.203075" y="30.203075"><feGaussianBlur color-interpolation-filters="linearRGB" in="SourceAlpha" result="shadowBlurInner1" stdDeviation="16 16"></feGaussianBlur><feOffset color-interpolation-filters="linearRGB" dx="0" dy="0" in="shadowBlurInner1" result="shadowOffsetInner1"></feOffset><feComposite color-interpolation-filters="linearRGB" in="shadowOffsetInner1" in2="SourceAlpha" k1="0" k2="-1" k3="1" k4="0" operator="arithmetic" result="shadowInnerInner1"></feComposite><feColorMatrix color-interpolation-filters="linearRGB" in="shadowInnerInner1" result="result4" type="matrix" values="0 0 0 0 0.32266015 0 0 0 0 0 0 0 0 0 0.09761147 0 0 0 1 0"></feColorMatrix></filter></defs><g node-id="508"><g node-id="509"><path d="M 0.00 0.00 L 1024.00 0.00 L 1024.00 1024.00 L 0.00 1024.00 Z" fill="none" group-id="1,2" id="矩形备份-4" node-id="107" stroke="none" target-height="1024" target-width="1024" target-x="0" target-y="0"></path><g node-id="514"><g node-id="528"><path d="M 486.90 80.40 L 501.30 80.00 L 515.40 80.30 L 529.20 81.10 L 542.80 82.60 L 556.10 84.60 L 569.40 87.30 L 582.50 90.40 L 595.10 94.20 L 607.50 98.40 L 619.60 103.20 L 631.50 108.60 L 643.10 114.50 L 654.30 120.80 L 665.10 127.60 L 675.60 134.90 L 685.80 142.80 L 695.50 151.00 L 704.90 159.70 L 713.80 168.80 L 722.40 178.30 L 730.40 188.30 L 738.00 198.60 L 745.20 209.30 L 751.80 220.50 L 758.00 232.10 L 769.40 237.30 L 780.50 243.00 L 791.50 249.00 L 802.40 255.40 L 813.10 262.30 L 826.20 271.20 L 838.90 280.70 L 851.30 290.80 L 863.30 301.30 L 872.50 310.10 L 881.50 319.20 L 890.10 328.60 L 898.50 338.20 L 906.50 348.20 L 914.10 358.40 L 921.40 368.80 L 928.30 379.50 L 934.80 390.40 L 940.90 401.60 L 946.50 413.00 L 951.70 424.60 L 956.40 436.30 L 960.70 448.30 L 964.50 460.40 L 967.80 472.70 L 970.50 485.20 L 972.70 497.80 L 974.30 510.60 L 975.50 523.60 L 976.00 536.50 L 975.90 549.50 L 975.20 562.80 L 973.80 576.20 L 971.80 589.70 L 969.00 604.60 L 965.80 619.00 L 962.10 632.90 L 958.00 646.40 L 953.50 659.50 L 948.60 672.20 L 943.20 684.90 L 937.30 697.20 L 931.10 709.10 L 924.50 720.60 L 917.50 731.70 L 910.20 742.50 L 902.30 753.10 L 894.10 763.30 L 885.60 773.10 L 876.70 782.60 L 867.40 791.80 L 857.80 800.60 L 847.90 809.10 L 837.60 817.20 L 826.90 825.00 L 816.00 832.40 L 804.60 839.60 L 784.20 851.80 L 774.80 857.10 L 764.80 862.20 L 754.10 867.20 L 743.50 871.80 L 732.10 876.20 L 719.90 880.50 L 706.80 884.60 L 680.20 891.70 L 665.50 895.00 L 634.40 900.80 L 600.50 905.50 L 581.80 907.50 L 560.70 909.40 L 540.00 910.80 L 519.60 911.60 L 499.60 912.00 L 480.00 911.90 L 460.20 911.30 L 440.80 910.10 L 421.90 908.50 L 403.40 906.50 L 385.40 903.90 L 367.20 900.70 L 349.60 897.10 L 332.40 893.00 L 315.80 888.40 L 299.70 883.30 L 286.20 878.60 L 273.10 873.50 L 260.40 868.10 L 248.10 862.40 L 236.20 856.30 L 224.60 849.90 L 213.10 843.00 L 202.10 835.80 L 191.40 828.20 L 181.20 820.30 L 171.30 812.00 L 161.80 803.30 L 152.70 794.30 L 144.00 784.90 L 135.60 775.10 L 127.70 764.90 L 120.20 754.40 L 113.10 743.40 L 106.60 732.20 L 100.40 720.60 L 94.70 708.60 L 89.50 696.20 L 84.60 683.20 L 80.20 669.80 L 76.50 656.50 L 73.20 642.70 L 70.30 628.40 L 68.00 613.60 L 66.20 598.20 L 64.80 582.20 L 64.10 567.10 L 64.00 552.60 L 64.50 538.60 L 65.40 525.20 L 66.90 512.40 L 68.90 499.30 L 71.40 486.70 L 74.40 474.60 L 77.80 463.00 L 81.70 451.80 L 86.20 440.60 L 91.10 429.90 L 96.30 419.50 L 102.10 409.60 L 108.20 400.00 L 114.80 390.60 L 121.70 381.60 L 129.10 372.90 L 136.80 364.60 L 145.00 356.50 L 153.50 348.80 L 162.30 341.40 L 171.50 334.30 L 181.00 327.40 L 191.00 320.90 L 193.90 307.40 L 197.20 294.50 L 200.80 282.00 L 204.80 270.10 L 209.20 258.60 L 213.80 247.60 L 218.80 237.10 L 224.40 226.40 L 230.30 216.20 L 236.40 206.40 L 242.90 197.10 L 249.70 188.10 L 256.90 179.60 L 264.30 171.40 L 273.50 162.20 L 283.00 153.50 L 293.00 145.30 L 303.40 137.60 L 314.20 130.30 L 325.40 123.60 L 336.90 117.40 L 348.70 111.70 L 361.00 106.40 L 373.60 101.60 L 386.70 97.20 L 400.30 93.30 L 413.70 90.00 L 427.50 87.20 L 441.70 84.80 L 456.30 82.90 L 471.40 81.40 L 486.90 80.40 Z" fill="url(#radialGradient-1)" fill-rule="evenodd" group-id="1,2,7,21" node-id="360" stroke="none" target-height="832" target-width="912" target-x="64" target-y="80"></path></g><path d="M 486.90 80.40 L 501.30 80.00 L 515.40 80.30 L 529.20 81.10 L 542.80 82.60 L 556.10 84.60 L 569.40 87.30 L 582.50 90.40 L 595.10 94.20 L 607.50 98.40 L 619.60 103.20 L 631.50 108.60 L 643.10 114.50 L 654.30 120.80 L 665.10 127.60 L 675.60 134.90 L 685.80 142.80 L 695.50 151.00 L 704.90 159.70 L 713.80 168.80 L 722.40 178.30 L 730.40 188.30 L 738.00 198.60 L 745.20 209.30 L 751.80 220.50 L 758.00 232.10 L 769.40 237.30 L 780.50 243.00 L 791.50 249.00 L 802.40 255.40 L 813.10 262.30 L 826.20 271.20 L 838.90 280.70 L 851.30 290.80 L 863.30 301.30 L 872.50 310.10 L 881.50 319.20 L 890.10 328.60 L 898.50 338.20 L 906.50 348.20 L 914.10 358.40 L 921.40 368.80 L 928.30 379.50 L 934.80 390.40 L 940.90 401.60 L 946.50 413.00 L 951.70 424.60 L 956.40 436.30 L 960.70 448.30 L 964.50 460.40 L 967.80 472.70 L 970.50 485.20 L 972.70 497.80 L 974.30 510.60 L 975.50 523.60 L 976.00 536.50 L 975.90 549.50 L 975.20 562.80 L 973.80 576.20 L 971.80 589.70 L 969.00 604.60 L 965.80 619.00 L 962.10 632.90 L 958.00 646.40 L 953.50 659.50 L 948.60 672.20 L 943.20 684.90 L 937.30 697.20 L 931.10 709.10 L 924.50 720.60 L 917.50 731.70 L 910.20 742.50 L 902.30 753.10 L 894.10 763.30 L 885.60 773.10 L 876.70 782.60 L 867.40 791.80 L 857.80 800.60 L 847.90 809.10 L 837.60 817.20 L 826.90 825.00 L 816.00 832.40 L 804.60 839.60 L 784.20 851.80 L 774.80 857.10 L 764.80 862.20 L 754.10 867.20 L 743.50 871.80 L 732.10 876.20 L 719.90 880.50 L 706.80 884.60 L 680.20 891.70 L 665.50 895.00 L 634.40 900.80 L 600.50 905.50 L 581.80 907.50 L 560.70 909.40 L 540.00 910.80 L 519.60 911.60 L 499.60 912.00 L 480.00 911.90 L 460.20 911.30 L 440.80 910.10 L 421.90 908.50 L 403.40 906.50 L 385.40 903.90 L 367.20 900.70 L 349.60 897.10 L 332.40 893.00 L 315.80 888.40 L 299.70 883.30 L 286.20 878.60 L 273.10 873.50 L 260.40 868.10 L 248.10 862.40 L 236.20 856.30 L 224.60 849.90 L 213.10 843.00 L 202.10 835.80 L 191.40 828.20 L 181.20 820.30 L 171.30 812.00 L 161.80 803.30 L 152.70 794.30 L 144.00 784.90 L 135.60 775.10 L 127.70 764.90 L 120.20 754.40 L 113.10 743.40 L 106.60 732.20 L 100.40 720.60 L 94.70 708.60 L 89.50 696.20 L 84.60 683.20 L 80.20 669.80 L 76.50 656.50 L 73.20 642.70 L 70.30 628.40 L 68.00 613.60 L 66.20 598.20 L 64.80 582.20 L 64.10 567.10 L 64.00 552.60 L 64.50 538.60 L 65.40 525.20 L 66.90 512.40 L 68.90 499.30 L 71.40 486.70 L 74.40 474.60 L 77.80 463.00 L 81.70 451.80 L 86.20 440.60 L 91.10 429.90 L 96.30 419.50 L 102.10 409.60 L 108.20 400.00 L 114.80 390.60 L 121.70 381.60 L 129.10 372.90 L 136.80 364.60 L 145.00 356.50 L 153.50 348.80 L 162.30 341.40 L 171.50 334.30 L 181.00 327.40 L 191.00 320.90 L 193.90 307.40 L 197.20 294.50 L 200.80 282.00 L 204.80 270.10 L 209.20 258.60 L 213.80 247.60 L 218.80 237.10 L 224.40 226.40 L 230.30 216.20 L 236.40 206.40 L 242.90 197.10 L 249.70 188.10 L 256.90 179.60 L 264.30 171.40 L 273.50 162.20 L 283.00 153.50 L 293.00 145.30 L 303.40 137.60 L 314.20 130.30 L 325.40 123.60 L 336.90 117.40 L 348.70 111.70 L 361.00 106.40 L 373.60 101.60 L 386.70 97.20 L 400.30 93.30 L 413.70 90.00 L 427.50 87.20 L 441.70 84.80 L 456.30 82.90 L 471.40 81.40 L 486.90 80.40 Z" fill="#000000" fill-rule="evenodd" filter="url(#filter-3)" group-id="1,2,7,22" node-id="365" stroke="none" target-height="832" target-width="912" target-x="64" target-y="80"></path></g><g node-id="515"><g node-id="530"><g node-id="543"><path d="M 406.40 671.90 L 404.00 661.80 L 402.20 652.50 L 401.00 644.00 L 400.20 636.10 L 400.00 629.50 L 400.20 623.50 L 400.70 617.90 L 401.60 612.80 L 402.90 608.10 L 404.60 603.40 L 406.80 599.10 L 409.40 595.20 L 412.50 591.60 L 416.00 588.40 L 419.80 585.70 L 424.20 583.20 L 429.20 581.10 L 435.00 579.30 L 441.50 577.80 L 447.00 577.10 L 456.90 576.50 L 473.00 576.10 L 497.50 576.00 L 533.00 576.50 L 582.20 577.80 L 588.50 578.00 L 594.50 578.70 L 600.00 579.90 L 605.30 581.50 L 610.40 583.60 L 615.10 586.00 L 619.40 588.90 L 623.40 592.20 L 626.90 595.80 L 630.10 599.90 L 632.90 604.30 L 635.20 609.20 L 637.10 614.30 L 638.40 619.70 L 639.30 625.70 L 639.70 632.10 L 639.50 638.40 L 638.80 645.10 L 637.50 652.40 L 633.10 668.70 L 625.10 692.50 L 616.70 713.20 L 607.60 731.70 L 598.90 746.40 L 594.10 753.50 L 589.00 760.30 L 583.60 766.90 L 577.70 773.10 L 571.60 778.80 L 565.20 784.00 L 560.10 787.50 L 554.80 790.60 L 549.30 793.30 L 543.60 795.70 L 537.80 797.50 L 531.70 798.90 L 525.30 799.70 L 518.70 800.00 L 511.30 799.70 L 504.30 798.90 L 497.50 797.50 L 490.90 795.70 L 484.50 793.20 L 478.30 790.30 L 472.30 786.80 L 466.40 782.70 L 460.60 778.00 L 455.00 772.70 L 449.50 766.60 L 444.10 759.90 L 438.90 752.30 L 433.80 743.90 L 428.80 734.60 L 423.90 724.30 L 419.30 713.00 L 414.80 700.50 L 410.50 686.80 L 406.40 671.90 Z" fill="#000000" fill-rule="evenodd" filter="url(#filter-7)" group-id="1,2,8,23,36" node-id="373" stroke="none" target-height="224" target-width="239.70001" target-x="400" target-y="576"></path></g><path d="M 406.40 671.90 L 404.00 661.80 L 402.20 652.50 L 401.00 644.00 L 400.20 636.10 L 400.00 629.50 L 400.20 623.50 L 400.70 617.90 L 401.60 612.80 L 402.90 608.10 L 404.60 603.40 L 406.80 599.10 L 409.40 595.20 L 412.50 591.60 L 416.00 588.40 L 419.80 585.70 L 424.20 583.20 L 429.20 581.10 L 435.00 579.30 L 441.50 577.80 L 447.00 577.10 L 456.90 576.50 L 473.00 576.10 L 497.50 576.00 L 533.00 576.50 L 582.20 577.80 L 588.50 578.00 L 594.50 578.70 L 600.00 579.90 L 605.30 581.50 L 610.40 583.60 L 615.10 586.00 L 619.40 588.90 L 623.40 592.20 L 626.90 595.80 L 630.10 599.90 L 632.90 604.30 L 635.20 609.20 L 637.10 614.30 L 638.40 619.70 L 639.30 625.70 L 639.70 632.10 L 639.50 638.40 L 638.80 645.10 L 637.50 652.40 L 633.10 668.70 L 625.10 692.50 L 616.70 713.20 L 607.60 731.70 L 598.90 746.40 L 594.10 753.50 L 589.00 760.30 L 583.60 766.90 L 577.70 773.10 L 571.60 778.80 L 565.20 784.00 L 560.10 787.50 L 554.80 790.60 L 549.30 793.30 L 543.60 795.70 L 537.80 797.50 L 531.70 798.90 L 525.30 799.70 L 518.70 800.00 L 511.30 799.70 L 504.30 798.90 L 497.50 797.50 L 490.90 795.70 L 484.50 793.20 L 478.30 790.30 L 472.30 786.80 L 466.40 782.70 L 460.60 778.00 L 455.00 772.70 L 449.50 766.60 L 444.10 759.90 L 438.90 752.30 L 433.80 743.90 L 428.80 734.60 L 423.90 724.30 L 419.30 713.00 L 414.80 700.50 L 410.50 686.80 L 406.40 671.90 Z" fill="url(#linearGradient-4)" fill-opacity="0.4" fill-rule="evenodd" group-id="1,2,8,23,37" node-id="378" stroke="none" target-height="224" target-width="239.70001" target-x="400" target-y="576"></path></g><g node-id="531"><g node-id="545"><path d="M 424.30 667.50 L 421.80 657.60 L 420.10 648.70 L 419.20 640.80 L 418.90 634.60 L 419.10 629.10 L 419.70 624.10 L 420.70 619.50 L 422.00 615.90 L 423.60 612.60 L 425.50 609.60 L 427.70 606.80 L 430.30 604.20 L 433.10 602.00 L 436.40 600.00 L 440.10 598.20 L 444.30 596.60 L 452.30 594.40 L 454.20 594.20 L 487.50 594.50 L 572.40 594.30 L 579.10 594.60 L 585.20 595.50 L 590.90 596.80 L 596.10 598.70 L 600.10 600.70 L 603.80 603.00 L 607.10 605.50 L 610.10 608.30 L 612.80 611.50 L 615.10 614.90 L 617.00 618.60 L 618.60 622.60 L 619.80 626.90 L 620.50 631.70 L 620.90 636.30 L 620.70 641.20 L 620.10 646.50 L 619.00 652.20 L 617.30 658.30 L 612.80 672.20 L 606.60 688.30 L 602.40 697.60 L 597.60 707.10 L 592.00 716.90 L 583.50 729.50 L 578.70 735.60 L 573.50 741.40 L 568.00 746.70 L 562.20 751.70 L 557.50 755.00 L 552.60 758.00 L 547.60 760.60 L 542.30 762.90 L 536.80 764.70 L 531.10 766.00 L 525.20 766.80 L 518.90 767.10 L 511.90 766.80 L 505.20 766.00 L 498.80 764.70 L 492.60 762.80 L 486.60 760.40 L 480.90 757.50 L 475.30 754.00 L 469.90 750.00 L 464.70 745.30 L 459.50 740.00 L 454.60 734.00 L 449.70 727.30 L 445.10 719.70 L 440.50 711.30 L 436.20 701.90 L 432.00 691.50 L 428.00 680.10 L 424.30 667.50 Z" fill="#ed1f2a" fill-rule="evenodd" group-id="1,2,8,24,38" node-id="385" stroke="none" target-height="172.89996" target-width="202.00003" target-x="418.9" target-y="594.2"></path></g><path d="M 424.30 667.50 L 421.80 657.60 L 420.10 648.70 L 419.20 640.80 L 418.90 634.60 L 419.10 629.10 L 419.70 624.10 L 420.70 619.50 L 422.00 615.90 L 423.60 612.60 L 425.50 609.60 L 427.70 606.80 L 430.30 604.20 L 433.10 602.00 L 436.40 600.00 L 440.10 598.20 L 444.30 596.60 L 452.30 594.40 L 454.20 594.20 L 487.50 594.50 L 572.40 594.30 L 579.10 594.60 L 585.20 595.50 L 590.90 596.80 L 596.10 598.70 L 600.10 600.70 L 603.80 603.00 L 607.10 605.50 L 610.10 608.30 L 612.80 611.50 L 615.10 614.90 L 617.00 618.60 L 618.60 622.60 L 619.80 626.90 L 620.50 631.70 L 620.90 636.30 L 620.70 641.20 L 620.10 646.50 L 619.00 652.20 L 617.30 658.30 L 612.80 672.20 L 606.60 688.30 L 602.40 697.60 L 597.60 707.10 L 592.00 716.90 L 583.50 729.50 L 578.70 735.60 L 573.50 741.40 L 568.00 746.70 L 562.20 751.70 L 557.50 755.00 L 552.60 758.00 L 547.60 760.60 L 542.30 762.90 L 536.80 764.70 L 531.10 766.00 L 525.20 766.80 L 518.90 767.10 L 511.90 766.80 L 505.20 766.00 L 498.80 764.70 L 492.60 762.80 L 486.60 760.40 L 480.90 757.50 L 475.30 754.00 L 469.90 750.00 L 464.70 745.30 L 459.50 740.00 L 454.60 734.00 L 449.70 727.30 L 445.10 719.70 L 440.50 711.30 L 436.20 701.90 L 432.00 691.50 L 428.00 680.10 L 424.30 667.50 Z" fill="#000000" fill-rule="evenodd" filter="url(#filter-9)" group-id="1,2,8,24,39" node-id="390" stroke="none" target-height="172.89996" target-width="202.00003" target-x="418.9" target-y="594.2"></path></g><path d="M 519.90 703.70 L 526.50 703.90 L 532.90 704.60 L 539.00 705.70 L 544.90 707.20 L 556.30 711.20 L 561.50 713.70 L 571.20 719.50 L 575.60 722.80 L 583.30 729.70 L 579.40 734.80 L 570.70 744.20 L 566.00 748.50 L 561.00 752.50 L 555.80 756.10 L 550.30 759.30 L 544.60 762.00 L 538.60 764.20 L 529.10 766.30 L 518.90 767.10 L 511.60 766.80 L 504.70 765.90 L 498.10 764.50 L 491.70 762.50 L 485.60 759.90 L 479.70 756.80 L 474.00 753.10 L 468.40 748.70 L 463.00 743.70 L 457.80 738.00 L 452.70 731.60 L 460.90 724.10 L 465.60 720.60 L 475.90 714.50 L 481.60 711.80 L 487.40 709.40 L 493.50 707.50 L 499.90 705.80 L 506.30 704.70 L 513.00 703.90 L 519.90 703.70 Z" fill="url(#linearGradient-10)" fill-rule="evenodd" group-id="1,2,8" id="路径" node-id="118" stroke="none" target-height="63.399963" target-width="130.59998" target-x="452.7" target-y="703.7"></path><g node-id="532"><g node-id="547"><path d="M 424.30 667.50 L 420.80 652.40 L 419.10 639.60 L 418.90 633.30 L 419.20 627.60 L 420.00 622.50 L 421.30 617.80 L 422.70 614.20 L 424.60 610.90 L 426.80 607.80 L 429.40 605.10 L 432.40 602.50 L 435.60 600.40 L 439.20 598.50 L 443.50 596.90 L 448.30 595.40 L 453.90 594.30 L 471.70 596.00 L 489.20 597.20 L 506.50 597.80 L 523.40 597.80 L 540.00 597.20 L 556.30 596.00 L 572.40 594.30 L 579.10 594.60 L 585.20 595.50 L 590.90 596.80 L 596.10 598.70 L 600.10 600.70 L 603.80 603.00 L 607.10 605.50 L 610.10 608.30 L 612.80 611.50 L 615.10 614.90 L 617.00 618.60 L 618.60 622.60 L 619.80 626.90 L 620.50 631.70 L 620.90 636.30 L 620.70 641.20 L 620.10 646.50 L 619.00 652.20 L 617.30 658.30 L 612.80 672.20 L 606.60 688.30 L 602.40 697.60 L 597.60 707.10 L 592.00 716.90 L 583.50 729.50 L 578.70 735.60 L 573.50 741.40 L 568.00 746.70 L 562.20 751.70 L 557.50 755.00 L 552.60 758.00 L 547.60 760.60 L 542.30 762.90 L 536.80 764.70 L 531.10 766.00 L 525.20 766.80 L 518.90 767.10 L 511.90 766.80 L 505.20 766.00 L 498.80 764.70 L 492.60 762.80 L 486.60 760.40 L 480.90 757.50 L 475.30 754.00 L 469.90 750.00 L 464.70 745.30 L 459.50 740.00 L 454.60 734.00 L 449.70 727.30 L 445.10 719.70 L 440.50 711.30 L 436.20 701.90 L 432.00 691.50 L 428.00 680.10 L 424.30 667.50 Z" fill="#000000" fill-rule="evenodd" filter="url(#filter-12)" group-id="1,2,8,25,40" node-id="398" stroke="none" target-height="172.79999" target-width="202.00003" target-x="418.9" target-y="594.3"></path></g></g></g><g node-id="516"><path d="M 848.00 568.00 L 847.70 574.60 L 846.80 581.00 L 845.40 587.30 L 843.50 593.30 L 841.10 599.20 L 838.20 604.80 L 834.80 610.10 L 831.00 615.20 L 826.80 620.10 L 822.30 624.50 L 817.30 628.70 L 812.00 632.60 L 806.40 636.00 L 800.50 639.00 L 794.30 641.70 L 787.80 643.90 L 781.20 645.70 L 774.40 646.90 L 767.30 647.70 L 760.00 648.00 L 752.70 647.70 L 745.60 646.90 L 738.80 645.70 L 732.20 643.90 L 725.70 641.70 L 719.50 639.00 L 713.60 636.00 L 708.00 632.60 L 702.70 628.70 L 697.70 624.50 L 693.20 620.10 L 689.00 615.20 L 685.20 610.10 L 681.80 604.80 L 678.90 599.20 L 676.50 593.30 L 674.60 587.30 L 673.20 581.00 L 672.30 574.60 L 672.00 568.00 L 672.30 561.40 L 673.20 555.00 L 674.60 548.70 L 676.50 542.70 L 678.90 536.80 L 681.80 531.20 L 685.20 525.90 L 689.00 520.80 L 693.20 515.90 L 697.70 511.50 L 702.70 507.30 L 708.00 503.40 L 713.60 500.00 L 719.50 497.00 L 725.70 494.30 L 732.20 492.10 L 738.80 490.30 L 745.60 489.10 L 752.70 488.30 L 760.00 488.00 L 767.30 488.30 L 774.40 489.10 L 781.20 490.30 L 787.80 492.10 L 794.30 494.30 L 800.50 497.00 L 806.40 500.00 L 812.00 503.40 L 817.30 507.30 L 822.30 511.50 L 826.80 515.90 L 831.00 520.80 L 834.80 525.90 L 838.20 531.20 L 841.10 536.80 L 843.50 542.70 L 845.40 548.70 L 846.80 555.00 L 847.70 561.40 L 848.00 568.00 Z" fill="#ff5ea4" fill-opacity="0.8" fill-rule="evenodd" filter="url(#filter-13)" group-id="1,2,9" id="椭圆形" node-id="121" stroke="none" target-height="160" target-width="176" target-x="672" target-y="488"></path></g><path d="M 368.00 568.00 L 367.70 574.60 L 366.80 581.00 L 365.40 587.30 L 363.50 593.30 L 361.10 599.20 L 358.20 604.80 L 354.80 610.10 L 351.00 615.20 L 346.80 620.10 L 342.30 624.50 L 337.30 628.70 L 332.00 632.60 L 326.40 636.00 L 320.50 639.00 L 314.30 641.70 L 307.80 643.90 L 301.20 645.70 L 294.40 646.90 L 287.30 647.70 L 280.00 648.00 L 272.70 647.70 L 265.60 646.90 L 258.80 645.70 L 252.20 643.90 L 245.70 641.70 L 239.50 639.00 L 233.60 636.00 L 228.00 632.60 L 222.70 628.70 L 217.70 624.50 L 213.20 620.10 L 209.00 615.20 L 205.20 610.10 L 201.80 604.80 L 198.90 599.20 L 196.50 593.30 L 194.60 587.30 L 193.20 581.00 L 192.30 574.60 L 192.00 568.00 L 192.30 561.40 L 193.20 555.00 L 194.60 548.70 L 196.50 542.70 L 198.90 536.80 L 201.80 531.20 L 205.20 525.90 L 209.00 520.80 L 213.20 515.90 L 217.70 511.50 L 222.70 507.30 L 228.00 503.40 L 233.60 500.00 L 239.50 497.00 L 245.70 494.30 L 252.20 492.10 L 258.80 490.30 L 265.60 489.10 L 272.70 488.30 L 280.00 488.00 L 287.30 488.30 L 294.40 489.10 L 301.20 490.30 L 307.80 492.10 L 314.30 494.30 L 320.50 497.00 L 326.40 500.00 L 332.00 503.40 L 337.30 507.30 L 342.30 511.50 L 346.80 515.90 L 351.00 520.80 L 354.80 525.90 L 358.20 531.20 L 361.10 536.80 L 363.50 542.70 L 365.40 548.70 L 366.80 555.00 L 367.70 561.40 L 368.00 568.00 Z" fill="#ff5ea4" fill-opacity="0.8" fill-rule="evenodd" filter="url(#filter-14)" group-id="1,2,10" id="椭圆形备份-6" node-id="122" stroke="none" target-height="160" target-width="176" target-x="192" target-y="488"></path></g><g node-id="510"><g node-id="518"><path d="M 352.00 840.00 L 351.80 846.90 L 351.10 853.70 L 350.00 860.20 L 348.60 866.60 L 346.70 872.90 L 343.80 880.50 L 340.40 887.80 L 336.40 894.80 L 331.90 901.40 L 326.90 907.70 L 321.50 913.50 L 315.70 918.90 L 309.40 923.90 L 302.80 928.40 L 295.80 932.40 L 288.50 935.80 L 280.90 938.70 L 274.60 940.60 L 268.20 942.00 L 261.70 943.10 L 254.90 943.80 L 248.00 944.00 L 241.10 943.80 L 234.30 943.10 L 227.80 942.00 L 221.40 940.60 L 215.10 938.70 L 207.50 935.80 L 200.20 932.40 L 193.20 928.40 L 186.60 923.90 L 180.30 918.90 L 174.50 913.50 L 169.10 907.70 L 164.10 901.40 L 159.60 894.80 L 155.60 887.80 L 152.20 880.50 L 149.30 872.90 L 147.40 866.60 L 146.00 860.20 L 144.90 853.70 L 144.20 846.90 L 144.00 840.00 L 144.20 833.10 L 144.90 826.30 L 146.00 819.80 L 147.40 813.40 L 149.30 807.10 L 152.20 799.50 L 155.60 792.20 L 159.60 785.20 L 164.10 778.60 L 169.10 772.30 L 174.50 766.50 L 180.30 761.10 L 186.60 756.10 L 193.20 751.60 L 200.20 747.60 L 207.50 744.20 L 215.10 741.30 L 221.40 739.40 L 227.80 738.00 L 234.30 736.90 L 241.10 736.20 L 248.00 736.00 L 254.90 736.20 L 261.70 736.90 L 268.20 738.00 L 274.60 739.40 L 280.90 741.30 L 288.50 744.20 L 295.80 747.60 L 302.80 751.60 L 309.40 756.10 L 315.70 761.10 L 321.50 766.50 L 326.90 772.30 L 331.90 778.60 L 336.40 785.20 L 340.40 792.20 L 343.80 799.50 L 346.70 807.10 L 348.60 813.40 L 350.00 819.80 L 351.10 826.30 L 351.80 833.10 L 352.00 840.00 Z" fill="#000000" fill-rule="evenodd" filter="url(#filter-17)" group-id="1,3,11" node-id="415" stroke="none" target-height="208" target-width="208" target-x="144" target-y="736"></path></g><g node-id="519"><path d="M 352.00 840.00 L 351.80 846.90 L 351.10 853.70 L 350.00 860.20 L 348.60 866.60 L 346.70 872.90 L 343.80 880.50 L 340.40 887.80 L 336.40 894.80 L 331.90 901.40 L 326.90 907.70 L 321.50 913.50 L 315.70 918.90 L 309.40 923.90 L 302.80 928.40 L 295.80 932.40 L 288.50 935.80 L 280.90 938.70 L 274.60 940.60 L 268.20 942.00 L 261.70 943.10 L 254.90 943.80 L 248.00 944.00 L 241.10 943.80 L 234.30 943.10 L 227.80 942.00 L 221.40 940.60 L 215.10 938.70 L 207.50 935.80 L 200.20 932.40 L 193.20 928.40 L 186.60 923.90 L 180.30 918.90 L 174.50 913.50 L 169.10 907.70 L 164.10 901.40 L 159.60 894.80 L 155.60 887.80 L 152.20 880.50 L 149.30 872.90 L 147.40 866.60 L 146.00 860.20 L 144.90 853.70 L 144.20 846.90 L 144.00 840.00 L 144.20 833.10 L 144.90 826.30 L 146.00 819.80 L 147.40 813.40 L 149.30 807.10 L 152.20 799.50 L 155.60 792.20 L 159.60 785.20 L 164.10 778.60 L 169.10 772.30 L 174.50 766.50 L 180.30 761.10 L 186.60 756.10 L 193.20 751.60 L 200.20 747.60 L 207.50 744.20 L 215.10 741.30 L 221.40 739.40 L 227.80 738.00 L 234.30 736.90 L 241.10 736.20 L 248.00 736.00 L 254.90 736.20 L 261.70 736.90 L 268.20 738.00 L 274.60 739.40 L 280.90 741.30 L 288.50 744.20 L 295.80 747.60 L 302.80 751.60 L 309.40 756.10 L 315.70 761.10 L 321.50 766.50 L 326.90 772.30 L 331.90 778.60 L 336.40 785.20 L 340.40 792.20 L 343.80 799.50 L 346.70 807.10 L 348.60 813.40 L 350.00 819.80 L 351.10 826.30 L 351.80 833.10 L 352.00 840.00 Z" fill="url(#radialGradient1)" fill-rule="evenodd" group-id="1,3,12" node-id="420" stroke="none" target-height="208" target-width="208" target-x="144" target-y="736"></path></g><path d="M 352.00 840.00 L 351.80 846.90 L 351.10 853.70 L 350.00 860.20 L 348.60 866.60 L 346.70 872.90 L 343.80 880.50 L 340.40 887.80 L 336.40 894.80 L 331.90 901.40 L 326.90 907.70 L 321.50 913.50 L 315.70 918.90 L 309.40 923.90 L 302.80 928.40 L 295.80 932.40 L 288.50 935.80 L 280.90 938.70 L 274.60 940.60 L 268.20 942.00 L 261.70 943.10 L 254.90 943.80 L 248.00 944.00 L 241.10 943.80 L 234.30 943.10 L 227.80 942.00 L 221.40 940.60 L 215.10 938.70 L 207.50 935.80 L 200.20 932.40 L 193.20 928.40 L 186.60 923.90 L 180.30 918.90 L 174.50 913.50 L 169.10 907.70 L 164.10 901.40 L 159.60 894.80 L 155.60 887.80 L 152.20 880.50 L 149.30 872.90 L 147.40 866.60 L 146.00 860.20 L 144.90 853.70 L 144.20 846.90 L 144.00 840.00 L 144.20 833.10 L 144.90 826.30 L 146.00 819.80 L 147.40 813.40 L 149.30 807.10 L 152.20 799.50 L 155.60 792.20 L 159.60 785.20 L 164.10 778.60 L 169.10 772.30 L 174.50 766.50 L 180.30 761.10 L 186.60 756.10 L 193.20 751.60 L 200.20 747.60 L 207.50 744.20 L 215.10 741.30 L 221.40 739.40 L 227.80 738.00 L 234.30 736.90 L 241.10 736.20 L 248.00 736.00 L 254.90 736.20 L 261.70 736.90 L 268.20 738.00 L 274.60 739.40 L 280.90 741.30 L 288.50 744.20 L 295.80 747.60 L 302.80 751.60 L 309.40 756.10 L 315.70 761.10 L 321.50 766.50 L 326.90 772.30 L 331.90 778.60 L 336.40 785.20 L 340.40 792.20 L 343.80 799.50 L 346.70 807.10 L 348.60 813.40 L 350.00 819.80 L 351.10 826.30 L 351.80 833.10 L 352.00 840.00 Z" fill="#000000" fill-rule="evenodd" filter="url(#filter-18)" group-id="1,3,13" node-id="425" stroke="none" target-height="208" target-width="208" target-x="144" target-y="736"></path></g><g node-id="511"><g node-id="521"><path d="M 896.00 840.00 L 895.80 846.90 L 895.10 853.70 L 894.00 860.20 L 892.60 866.60 L 890.70 872.90 L 887.80 880.50 L 884.40 887.80 L 880.40 894.80 L 875.90 901.40 L 870.90 907.70 L 865.50 913.50 L 859.70 918.90 L 853.40 923.90 L 846.80 928.40 L 839.80 932.40 L 832.50 935.80 L 824.90 938.70 L 818.60 940.60 L 812.20 942.00 L 805.70 943.10 L 798.90 943.80 L 792.00 944.00 L 785.10 943.80 L 778.30 943.10 L 771.80 942.00 L 765.40 940.60 L 759.10 938.70 L 751.50 935.80 L 744.20 932.40 L 737.20 928.40 L 730.60 923.90 L 724.30 918.90 L 718.50 913.50 L 713.10 907.70 L 708.10 901.40 L 703.60 894.80 L 699.60 887.80 L 696.20 880.50 L 693.30 872.90 L 691.40 866.60 L 690.00 860.20 L 688.90 853.70 L 688.20 846.90 L 688.00 840.00 L 688.20 833.10 L 688.90 826.30 L 690.00 819.80 L 691.40 813.40 L 693.30 807.10 L 696.20 799.50 L 699.60 792.20 L 703.60 785.20 L 708.10 778.60 L 713.10 772.30 L 718.50 766.50 L 724.30 761.10 L 730.60 756.10 L 737.20 751.60 L 744.20 747.60 L 751.50 744.20 L 759.10 741.30 L 765.40 739.40 L 771.80 738.00 L 778.30 736.90 L 785.10 736.20 L 792.00 736.00 L 798.90 736.20 L 805.70 736.90 L 812.20 738.00 L 818.60 739.40 L 824.90 741.30 L 832.50 744.20 L 839.80 747.60 L 846.80 751.60 L 853.40 756.10 L 859.70 761.10 L 865.50 766.50 L 870.90 772.30 L 875.90 778.60 L 880.40 785.20 L 884.40 792.20 L 887.80 799.50 L 890.70 807.10 L 892.60 813.40 L 894.00 819.80 L 895.10 826.30 L 895.80 833.10 L 896.00 840.00 Z" fill="#000000" fill-rule="evenodd" filter="url(#filter-20)" group-id="1,4,14" node-id="432" stroke="none" target-height="208" target-width="208" target-x="688" target-y="736"></path></g><g node-id="522"><path d="M 896.00 840.00 L 895.80 846.90 L 895.10 853.70 L 894.00 860.20 L 892.60 866.60 L 890.70 872.90 L 887.80 880.50 L 884.40 887.80 L 880.40 894.80 L 875.90 901.40 L 870.90 907.70 L 865.50 913.50 L 859.70 918.90 L 853.40 923.90 L 846.80 928.40 L 839.80 932.40 L 832.50 935.80 L 824.90 938.70 L 818.60 940.60 L 812.20 942.00 L 805.70 943.10 L 798.90 943.80 L 792.00 944.00 L 785.10 943.80 L 778.30 943.10 L 771.80 942.00 L 765.40 940.60 L 759.10 938.70 L 751.50 935.80 L 744.20 932.40 L 737.20 928.40 L 730.60 923.90 L 724.30 918.90 L 718.50 913.50 L 713.10 907.70 L 708.10 901.40 L 703.60 894.80 L 699.60 887.80 L 696.20 880.50 L 693.30 872.90 L 691.40 866.60 L 690.00 860.20 L 688.90 853.70 L 688.20 846.90 L 688.00 840.00 L 688.20 833.10 L 688.90 826.30 L 690.00 819.80 L 691.40 813.40 L 693.30 807.10 L 696.20 799.50 L 699.60 792.20 L 703.60 785.20 L 708.10 778.60 L 713.10 772.30 L 718.50 766.50 L 724.30 761.10 L 730.60 756.10 L 737.20 751.60 L 744.20 747.60 L 751.50 744.20 L 759.10 741.30 L 765.40 739.40 L 771.80 738.00 L 778.30 736.90 L 785.10 736.20 L 792.00 736.00 L 798.90 736.20 L 805.70 736.90 L 812.20 738.00 L 818.60 739.40 L 824.90 741.30 L 832.50 744.20 L 839.80 747.60 L 846.80 751.60 L 853.40 756.10 L 859.70 761.10 L 865.50 766.50 L 870.90 772.30 L 875.90 778.60 L 880.40 785.20 L 884.40 792.20 L 887.80 799.50 L 890.70 807.10 L 892.60 813.40 L 894.00 819.80 L 895.10 826.30 L 895.80 833.10 L 896.00 840.00 Z" fill="url(#radialGradient-15)" fill-rule="evenodd" group-id="1,4,15" node-id="437" stroke="none" target-height="208" target-width="208" target-x="688" target-y="736"></path></g><path d="M 896.00 840.00 L 895.80 846.90 L 895.10 853.70 L 894.00 860.20 L 892.60 866.60 L 890.70 872.90 L 887.80 880.50 L 884.40 887.80 L 880.40 894.80 L 875.90 901.40 L 870.90 907.70 L 865.50 913.50 L 859.70 918.90 L 853.40 923.90 L 846.80 928.40 L 839.80 932.40 L 832.50 935.80 L 824.90 938.70 L 818.60 940.60 L 812.20 942.00 L 805.70 943.10 L 798.90 943.80 L 792.00 944.00 L 785.10 943.80 L 778.30 943.10 L 771.80 942.00 L 765.40 940.60 L 759.10 938.70 L 751.50 935.80 L 744.20 932.40 L 737.20 928.40 L 730.60 923.90 L 724.30 918.90 L 718.50 913.50 L 713.10 907.70 L 708.10 901.40 L 703.60 894.80 L 699.60 887.80 L 696.20 880.50 L 693.30 872.90 L 691.40 866.60 L 690.00 860.20 L 688.90 853.70 L 688.20 846.90 L 688.00 840.00 L 688.20 833.10 L 688.90 826.30 L 690.00 819.80 L 691.40 813.40 L 693.30 807.10 L 696.20 799.50 L 699.60 792.20 L 703.60 785.20 L 708.10 778.60 L 713.10 772.30 L 718.50 766.50 L 724.30 761.10 L 730.60 756.10 L 737.20 751.60 L 744.20 747.60 L 751.50 744.20 L 759.10 741.30 L 765.40 739.40 L 771.80 738.00 L 778.30 736.90 L 785.10 736.20 L 792.00 736.00 L 798.90 736.20 L 805.70 736.90 L 812.20 738.00 L 818.60 739.40 L 824.90 741.30 L 832.50 744.20 L 839.80 747.60 L 846.80 751.60 L 853.40 756.10 L 859.70 761.10 L 865.50 766.50 L 870.90 772.30 L 875.90 778.60 L 880.40 785.20 L 884.40 792.20 L 887.80 799.50 L 890.70 807.10 L 892.60 813.40 L 894.00 819.80 L 895.10 826.30 L 895.80 833.10 L 896.00 840.00 Z" fill="#000000" fill-rule="evenodd" filter="url(#filter-21)" group-id="1,4,16" node-id="442" stroke="none" target-height="208" target-width="208" target-x="688" target-y="736"></path></g><g node-id="512"><g node-id="524"><g node-id="533"><path d="M 800.00 456.40 L 799.70 464.70 L 798.90 472.80 L 797.60 480.60 L 795.70 488.30 L 793.40 495.80 L 790.60 503.10 L 787.30 510.20 L 783.60 516.90 L 779.50 523.50 L 775.00 529.70 L 770.10 535.60 L 764.90 541.20 L 759.20 546.50 L 753.30 551.40 L 747.10 555.90 L 740.60 560.00 L 733.80 563.70 L 726.70 566.90 L 719.50 569.70 L 711.90 572.10 L 704.20 573.90 L 696.40 575.30 L 688.30 576.10 L 680.00 576.40 L 671.70 576.10 L 663.60 575.30 L 655.80 573.90 L 648.10 572.10 L 640.50 569.70 L 633.30 566.90 L 626.20 563.70 L 619.40 560.00 L 612.90 555.90 L 606.70 551.40 L 600.80 546.50 L 595.10 541.20 L 589.90 535.60 L 585.00 529.70 L 580.50 523.50 L 576.40 516.90 L 572.70 510.20 L 569.40 503.10 L 566.60 495.80 L 564.30 488.30 L 562.40 480.60 L 561.10 472.80 L 560.30 464.70 L 560.00 456.40 L 560.30 448.10 L 561.10 440.00 L 562.40 432.20 L 564.30 424.50 L 566.60 416.90 L 569.40 409.60 L 572.70 402.60 L 576.40 395.80 L 580.50 389.30 L 585.00 383.00 L 589.90 377.10 L 595.10 371.50 L 600.80 366.30 L 606.70 361.40 L 612.90 356.90 L 619.40 352.80 L 626.20 349.10 L 633.30 345.80 L 640.50 343.00 L 648.10 340.70 L 655.80 338.80 L 663.60 337.50 L 671.70 336.70 L 680.00 336.40 L 688.30 336.70 L 696.40 337.50 L 704.20 338.80 L 711.90 340.70 L 719.50 343.00 L 726.70 345.80 L 733.80 349.10 L 740.60 352.80 L 747.10 356.90 L 753.30 361.40 L 759.20 366.30 L 764.90 371.50 L 770.10 377.10 L 775.00 383.00 L 779.50 389.30 L 783.60 395.80 L 787.30 402.60 L 790.60 409.60 L 793.40 416.90 L 795.70 424.50 L 797.60 432.20 L 798.90 440.00 L 799.70 448.10 L 800.00 456.40 Z" fill="#000000" fill-rule="evenodd" filter="url(#filter-24)" group-id="1,5,17,26" node-id="450" stroke="none" target-height="240.00003" target-width="240" target-x="560" target-y="336.4"></path></g><g node-id="534"><path d="M 800.00 456.40 L 799.70 464.70 L 798.90 472.80 L 797.60 480.60 L 795.70 488.30 L 793.40 495.80 L 790.60 503.10 L 787.30 510.20 L 783.60 516.90 L 779.50 523.50 L 775.00 529.70 L 770.10 535.60 L 764.90 541.20 L 759.20 546.50 L 753.30 551.40 L 747.10 555.90 L 740.60 560.00 L 733.80 563.70 L 726.70 566.90 L 719.50 569.70 L 711.90 572.10 L 704.20 573.90 L 696.40 575.30 L 688.30 576.10 L 680.00 576.40 L 671.70 576.10 L 663.60 575.30 L 655.80 573.90 L 648.10 572.10 L 640.50 569.70 L 633.30 566.90 L 626.20 563.70 L 619.40 560.00 L 612.90 555.90 L 606.70 551.40 L 600.80 546.50 L 595.10 541.20 L 589.90 535.60 L 585.00 529.70 L 580.50 523.50 L 576.40 516.90 L 572.70 510.20 L 569.40 503.10 L 566.60 495.80 L 564.30 488.30 L 562.40 480.60 L 561.10 472.80 L 560.30 464.70 L 560.00 456.40 L 560.30 448.10 L 561.10 440.00 L 562.40 432.20 L 564.30 424.50 L 566.60 416.90 L 569.40 409.60 L 572.70 402.60 L 576.40 395.80 L 580.50 389.30 L 585.00 383.00 L 589.90 377.10 L 595.10 371.50 L 600.80 366.30 L 606.70 361.40 L 612.90 356.90 L 619.40 352.80 L 626.20 349.10 L 633.30 345.80 L 640.50 343.00 L 648.10 340.70 L 655.80 338.80 L 663.60 337.50 L 671.70 336.70 L 680.00 336.40 L 688.30 336.70 L 696.40 337.50 L 704.20 338.80 L 711.90 340.70 L 719.50 343.00 L 726.70 345.80 L 733.80 349.10 L 740.60 352.80 L 747.10 356.90 L 753.30 361.40 L 759.20 366.30 L 764.90 371.50 L 770.10 377.10 L 775.00 383.00 L 779.50 389.30 L 783.60 395.80 L 787.30 402.60 L 790.60 409.60 L 793.40 416.90 L 795.70 424.50 L 797.60 432.20 L 798.90 440.00 L 799.70 448.10 L 800.00 456.40 Z" fill="url(#linearGradient1)" fill-rule="evenodd" group-id="1,5,17,27" node-id="455" stroke="none" target-height="240.00003" target-width="240" target-x="560" target-y="336.4"></path></g><path d="M 800.00 456.40 L 799.70 464.70 L 798.90 472.80 L 797.60 480.60 L 795.70 488.30 L 793.40 495.80 L 790.60 503.10 L 787.30 510.20 L 783.60 516.90 L 779.50 523.50 L 775.00 529.70 L 770.10 535.60 L 764.90 541.20 L 759.20 546.50 L 753.30 551.40 L 747.10 555.90 L 740.60 560.00 L 733.80 563.70 L 726.70 566.90 L 719.50 569.70 L 711.90 572.10 L 704.20 573.90 L 696.40 575.30 L 688.30 576.10 L 680.00 576.40 L 671.70 576.10 L 663.60 575.30 L 655.80 573.90 L 648.10 572.10 L 640.50 569.70 L 633.30 566.90 L 626.20 563.70 L 619.40 560.00 L 612.90 555.90 L 606.70 551.40 L 600.80 546.50 L 595.10 541.20 L 589.90 535.60 L 585.00 529.70 L 580.50 523.50 L 576.40 516.90 L 572.70 510.20 L 569.40 503.10 L 566.60 495.80 L 564.30 488.30 L 562.40 480.60 L 561.10 472.80 L 560.30 464.70 L 560.00 456.40 L 560.30 448.10 L 561.10 440.00 L 562.40 432.20 L 564.30 424.50 L 566.60 416.90 L 569.40 409.60 L 572.70 402.60 L 576.40 395.80 L 580.50 389.30 L 585.00 383.00 L 589.90 377.10 L 595.10 371.50 L 600.80 366.30 L 606.70 361.40 L 612.90 356.90 L 619.40 352.80 L 626.20 349.10 L 633.30 345.80 L 640.50 343.00 L 648.10 340.70 L 655.80 338.80 L 663.60 337.50 L 671.70 336.70 L 680.00 336.40 L 688.30 336.70 L 696.40 337.50 L 704.20 338.80 L 711.90 340.70 L 719.50 343.00 L 726.70 345.80 L 733.80 349.10 L 740.60 352.80 L 747.10 356.90 L 753.30 361.40 L 759.20 366.30 L 764.90 371.50 L 770.10 377.10 L 775.00 383.00 L 779.50 389.30 L 783.60 395.80 L 787.30 402.60 L 790.60 409.60 L 793.40 416.90 L 795.70 424.50 L 797.60 432.20 L 798.90 440.00 L 799.70 448.10 L 800.00 456.40 Z" fill="#000000" fill-rule="evenodd" filter="url(#filter-25)" group-id="1,5,17,28" node-id="460" stroke="none" target-height="240.00003" target-width="240" target-x="560" target-y="336.4"></path></g><g node-id="525"><g node-id="536"><path d="M 753.80 456.40 L 753.60 462.50 L 752.90 468.40 L 751.70 474.20 L 750.10 479.70 L 748.00 485.20 L 745.60 490.30 L 742.80 495.30 L 739.60 500.00 L 736.10 504.50 L 732.20 508.60 L 728.10 512.40 L 723.60 516.00 L 718.90 519.20 L 714.00 522.00 L 708.80 524.40 L 703.30 526.50 L 697.80 528.10 L 692.10 529.30 L 686.10 530.00 L 680.00 530.20 L 673.90 530.00 L 667.90 529.30 L 662.20 528.10 L 656.70 526.50 L 651.20 524.40 L 646.00 522.00 L 641.10 519.20 L 636.40 516.00 L 631.90 512.40 L 627.80 508.60 L 623.90 504.50 L 620.40 500.00 L 617.20 495.30 L 614.40 490.30 L 612.00 485.20 L 609.90 479.70 L 608.30 474.20 L 607.10 468.40 L 606.40 462.50 L 606.20 456.40 L 606.40 450.30 L 607.10 444.30 L 608.30 438.60 L 609.90 433.00 L 612.00 427.60 L 614.40 422.40 L 617.20 417.50 L 620.40 412.80 L 623.90 408.30 L 627.80 404.20 L 631.90 400.30 L 636.40 396.80 L 641.10 393.60 L 646.00 390.80 L 651.20 388.40 L 656.70 386.30 L 662.20 384.70 L 667.90 383.50 L 673.90 382.80 L 680.00 382.50 L 686.10 382.80 L 692.10 383.50 L 697.80 384.70 L 703.30 386.30 L 708.80 388.40 L 714.00 390.80 L 718.90 393.60 L 723.60 396.80 L 728.10 400.30 L 732.20 404.20 L 736.10 408.30 L 739.60 412.80 L 742.80 417.50 L 745.60 422.40 L 748.00 427.60 L 750.10 433.00 L 751.70 438.60 L 752.90 444.30 L 753.60 450.30 L 753.80 456.40 Z" fill="#930027" fill-rule="evenodd" group-id="1,5,18,29" node-id="467" stroke="none" target-height="147.70001" target-width="147.59998" target-x="606.2" target-y="382.5"></path></g><path d="M 753.80 456.40 L 753.60 462.50 L 752.90 468.40 L 751.70 474.20 L 750.10 479.70 L 748.00 485.20 L 745.60 490.30 L 742.80 495.30 L 739.60 500.00 L 736.10 504.50 L 732.20 508.60 L 728.10 512.40 L 723.60 516.00 L 718.90 519.20 L 714.00 522.00 L 708.80 524.40 L 703.30 526.50 L 697.80 528.10 L 692.10 529.30 L 686.10 530.00 L 680.00 530.20 L 673.90 530.00 L 667.90 529.30 L 662.20 528.10 L 656.70 526.50 L 651.20 524.40 L 646.00 522.00 L 641.10 519.20 L 636.40 516.00 L 631.90 512.40 L 627.80 508.60 L 623.90 504.50 L 620.40 500.00 L 617.20 495.30 L 614.40 490.30 L 612.00 485.20 L 609.90 479.70 L 608.30 474.20 L 607.10 468.40 L 606.40 462.50 L 606.20 456.40 L 606.40 450.30 L 607.10 444.30 L 608.30 438.60 L 609.90 433.00 L 612.00 427.60 L 614.40 422.40 L 617.20 417.50 L 620.40 412.80 L 623.90 408.30 L 627.80 404.20 L 631.90 400.30 L 636.40 396.80 L 641.10 393.60 L 646.00 390.80 L 651.20 388.40 L 656.70 386.30 L 662.20 384.70 L 667.90 383.50 L 673.90 382.80 L 680.00 382.50 L 686.10 382.80 L 692.10 383.50 L 697.80 384.70 L 703.30 386.30 L 708.80 388.40 L 714.00 390.80 L 718.90 393.60 L 723.60 396.80 L 728.10 400.30 L 732.20 404.20 L 736.10 408.30 L 739.60 412.80 L 742.80 417.50 L 745.60 422.40 L 748.00 427.60 L 750.10 433.00 L 751.70 438.60 L 752.90 444.30 L 753.60 450.30 L 753.80 456.40 Z" fill="#000000" fill-rule="evenodd" filter="url(#filter-27)" group-id="1,5,18,30" node-id="472" stroke="none" target-height="147.70001" target-width="147.59998" target-x="606.2" target-y="382.5"></path></g><path d="M 716.90 456.40 L 716.20 463.90 L 714.00 470.80 L 711.90 475.00 L 709.20 478.90 L 706.10 482.50 L 702.60 485.60 L 698.70 488.20 L 694.40 490.40 L 687.50 492.50 L 680.00 493.30 L 672.50 492.50 L 665.60 490.40 L 661.30 488.20 L 657.40 485.60 L 653.90 482.50 L 650.80 478.90 L 648.10 475.00 L 646.00 470.80 L 643.80 463.90 L 643.30 460.20 L 643.10 456.40 L 643.30 452.60 L 644.70 445.40 L 646.00 442.00 L 648.10 437.70 L 650.80 433.80 L 653.90 430.30 L 657.40 427.10 L 661.30 424.50 L 665.60 422.40 L 672.50 420.20 L 680.00 419.50 L 687.50 420.20 L 694.40 422.40 L 698.70 424.50 L 702.60 427.10 L 706.10 430.30 L 709.20 433.80 L 711.90 437.70 L 714.00 442.00 L 716.20 448.90 L 716.90 456.40 Z" fill="#301502" fill-rule="evenodd" group-id="1,5" id="椭圆形" node-id="139" stroke="none" target-height="73.79999" target-width="73.80005" target-x="643.1" target-y="419.5"></path><path d="M 728.00 432.40 L 727.80 435.70 L 727.10 438.80 L 726.10 441.70 L 724.70 444.50 L 721.00 449.40 L 716.10 453.10 L 713.30 454.50 L 710.40 455.50 L 707.30 456.20 L 704.00 456.40 L 700.70 456.20 L 697.60 455.50 L 694.70 454.50 L 689.30 451.40 L 685.00 447.00 L 683.30 444.50 L 680.90 438.80 L 680.20 435.70 L 680.00 432.40 L 680.20 429.10 L 680.90 426.00 L 681.90 423.00 L 685.00 417.70 L 689.30 413.40 L 694.70 410.30 L 697.60 409.20 L 700.70 408.60 L 704.00 408.40 L 707.30 408.60 L 710.40 409.20 L 713.30 410.30 L 716.10 411.70 L 721.00 415.40 L 724.70 420.30 L 726.10 423.00 L 727.10 426.00 L 727.80 429.10 L 728.00 432.40 Z" fill="#ffffff" fill-rule="evenodd" group-id="1,5" id="椭圆形" node-id="140" stroke="none" target-height="48" target-width="48" target-x="680" target-y="408.4"></path><path d="M 670.80 488.70 L 670.50 491.40 L 669.70 494.00 L 668.40 496.40 L 666.70 498.50 L 664.60 500.20 L 662.20 501.50 L 659.60 502.30 L 656.90 502.50 L 654.20 502.30 L 651.60 501.50 L 649.20 500.20 L 647.10 498.50 L 645.40 496.40 L 644.10 494.00 L 643.30 491.40 L 643.10 488.70 L 643.30 486.00 L 644.10 483.40 L 645.40 481.00 L 647.10 478.90 L 649.20 477.20 L 651.60 475.90 L 654.20 475.10 L 656.90 474.80 L 659.60 475.10 L 662.20 475.90 L 664.60 477.20 L 666.70 478.90 L 668.40 481.00 L 669.70 483.40 L 670.50 486.00 L 670.80 488.70 Z" fill="#ffffff" fill-rule="evenodd" group-id="1,5" id="椭圆形备份-5" node-id="141" stroke="none" target-height="27.700012" target-width="27.700012" target-x="643.1" target-y="474.8"></path></g><g node-id="513"><g node-id="526"><g node-id="538"><path d="M 464.00 456.40 L 463.70 464.70 L 462.90 472.80 L 461.60 480.60 L 459.70 488.30 L 457.40 495.80 L 454.60 503.10 L 451.30 510.20 L 447.60 516.90 L 443.50 523.50 L 439.00 529.70 L 434.10 535.60 L 428.90 541.20 L 423.20 546.50 L 417.30 551.40 L 411.10 555.90 L 404.60 560.00 L 397.80 563.70 L 390.70 566.90 L 383.50 569.70 L 375.90 572.10 L 368.20 573.90 L 360.40 575.30 L 352.30 576.10 L 344.00 576.40 L 335.70 576.10 L 327.60 575.30 L 319.80 573.90 L 312.10 572.10 L 304.50 569.70 L 297.30 566.90 L 290.20 563.70 L 283.40 560.00 L 276.90 555.90 L 270.70 551.40 L 264.80 546.50 L 259.10 541.20 L 253.90 535.60 L 249.00 529.70 L 244.50 523.50 L 240.40 516.90 L 236.70 510.20 L 233.40 503.10 L 230.60 495.80 L 228.30 488.30 L 226.40 480.60 L 225.10 472.80 L 224.30 464.70 L 224.00 456.40 L 224.30 448.10 L 225.10 440.00 L 226.40 432.20 L 228.30 424.50 L 230.60 416.90 L 233.40 409.60 L 236.70 402.60 L 240.40 395.80 L 244.50 389.30 L 249.00 383.00 L 253.90 377.10 L 259.10 371.50 L 264.80 366.30 L 270.70 361.40 L 276.90 356.90 L 283.40 352.80 L 290.20 349.10 L 297.30 345.80 L 304.50 343.00 L 312.10 340.70 L 319.80 338.80 L 327.60 337.50 L 335.70 336.70 L 344.00 336.40 L 352.30 336.70 L 360.40 337.50 L 368.20 338.80 L 375.90 340.70 L 383.50 343.00 L 390.70 345.80 L 397.80 349.10 L 404.60 352.80 L 411.10 356.90 L 417.30 361.40 L 423.20 366.30 L 428.90 371.50 L 434.10 377.10 L 439.00 383.00 L 443.50 389.30 L 447.60 395.80 L 451.30 402.60 L 454.60 409.60 L 457.40 416.90 L 459.70 424.50 L 461.60 432.20 L 462.90 440.00 L 463.70 448.10 L 464.00 456.40 Z" fill="#000000" fill-rule="evenodd" filter="url(#filter-29)" group-id="1,6,19,31" node-id="484" stroke="none" target-height="240.00003" target-width="240" target-x="224" target-y="336.4"></path></g><g node-id="539"><path d="M 464.00 456.40 L 463.70 464.70 L 462.90 472.80 L 461.60 480.60 L 459.70 488.30 L 457.40 495.80 L 454.60 503.10 L 451.30 510.20 L 447.60 516.90 L 443.50 523.50 L 439.00 529.70 L 434.10 535.60 L 428.90 541.20 L 423.20 546.50 L 417.30 551.40 L 411.10 555.90 L 404.60 560.00 L 397.80 563.70 L 390.70 566.90 L 383.50 569.70 L 375.90 572.10 L 368.20 573.90 L 360.40 575.30 L 352.30 576.10 L 344.00 576.40 L 335.70 576.10 L 327.60 575.30 L 319.80 573.90 L 312.10 572.10 L 304.50 569.70 L 297.30 566.90 L 290.20 563.70 L 283.40 560.00 L 276.90 555.90 L 270.70 551.40 L 264.80 546.50 L 259.10 541.20 L 253.90 535.60 L 249.00 529.70 L 244.50 523.50 L 240.40 516.90 L 236.70 510.20 L 233.40 503.10 L 230.60 495.80 L 228.30 488.30 L 226.40 480.60 L 225.10 472.80 L 224.30 464.70 L 224.00 456.40 L 224.30 448.10 L 225.10 440.00 L 226.40 432.20 L 228.30 424.50 L 230.60 416.90 L 233.40 409.60 L 236.70 402.60 L 240.40 395.80 L 244.50 389.30 L 249.00 383.00 L 253.90 377.10 L 259.10 371.50 L 264.80 366.30 L 270.70 361.40 L 276.90 356.90 L 283.40 352.80 L 290.20 349.10 L 297.30 345.80 L 304.50 343.00 L 312.10 340.70 L 319.80 338.80 L 327.60 337.50 L 335.70 336.70 L 344.00 336.40 L 352.30 336.70 L 360.40 337.50 L 368.20 338.80 L 375.90 340.70 L 383.50 343.00 L 390.70 345.80 L 397.80 349.10 L 404.60 352.80 L 411.10 356.90 L 417.30 361.40 L 423.20 366.30 L 428.90 371.50 L 434.10 377.10 L 439.00 383.00 L 443.50 389.30 L 447.60 395.80 L 451.30 402.60 L 454.60 409.60 L 457.40 416.90 L 459.70 424.50 L 461.60 432.20 L 462.90 440.00 L 463.70 448.10 L 464.00 456.40 Z" fill="url(#linearGradient-22)" fill-rule="evenodd" group-id="1,6,19,32" node-id="489" stroke="none" target-height="240.00003" target-width="240" target-x="224" target-y="336.4"></path></g><path d="M 464.00 456.40 L 463.70 464.70 L 462.90 472.80 L 461.60 480.60 L 459.70 488.30 L 457.40 495.80 L 454.60 503.10 L 451.30 510.20 L 447.60 516.90 L 443.50 523.50 L 439.00 529.70 L 434.10 535.60 L 428.90 541.20 L 423.20 546.50 L 417.30 551.40 L 411.10 555.90 L 404.60 560.00 L 397.80 563.70 L 390.70 566.90 L 383.50 569.70 L 375.90 572.10 L 368.20 573.90 L 360.40 575.30 L 352.30 576.10 L 344.00 576.40 L 335.70 576.10 L 327.60 575.30 L 319.80 573.90 L 312.10 572.10 L 304.50 569.70 L 297.30 566.90 L 290.20 563.70 L 283.40 560.00 L 276.90 555.90 L 270.70 551.40 L 264.80 546.50 L 259.10 541.20 L 253.90 535.60 L 249.00 529.70 L 244.50 523.50 L 240.40 516.90 L 236.70 510.20 L 233.40 503.10 L 230.60 495.80 L 228.30 488.30 L 226.40 480.60 L 225.10 472.80 L 224.30 464.70 L 224.00 456.40 L 224.30 448.10 L 225.10 440.00 L 226.40 432.20 L 228.30 424.50 L 230.60 416.90 L 233.40 409.60 L 236.70 402.60 L 240.40 395.80 L 244.50 389.30 L 249.00 383.00 L 253.90 377.10 L 259.10 371.50 L 264.80 366.30 L 270.70 361.40 L 276.90 356.90 L 283.40 352.80 L 290.20 349.10 L 297.30 345.80 L 304.50 343.00 L 312.10 340.70 L 319.80 338.80 L 327.60 337.50 L 335.70 336.70 L 344.00 336.40 L 352.30 336.70 L 360.40 337.50 L 368.20 338.80 L 375.90 340.70 L 383.50 343.00 L 390.70 345.80 L 397.80 349.10 L 404.60 352.80 L 411.10 356.90 L 417.30 361.40 L 423.20 366.30 L 428.90 371.50 L 434.10 377.10 L 439.00 383.00 L 443.50 389.30 L 447.60 395.80 L 451.30 402.60 L 454.60 409.60 L 457.40 416.90 L 459.70 424.50 L 461.60 432.20 L 462.90 440.00 L 463.70 448.10 L 464.00 456.40 Z" fill="#000000" fill-rule="evenodd" filter="url(#filter-30)" group-id="1,6,19,33" node-id="494" stroke="none" target-height="240.00003" target-width="240" target-x="224" target-y="336.4"></path></g><g node-id="527"><g node-id="541"><path d="M 417.80 456.40 L 417.60 462.50 L 416.90 468.40 L 415.70 474.20 L 414.10 479.70 L 412.00 485.20 L 409.60 490.30 L 406.80 495.30 L 403.60 500.00 L 400.10 504.50 L 396.20 508.60 L 392.10 512.40 L 387.60 516.00 L 382.90 519.20 L 378.00 522.00 L 372.80 524.40 L 367.30 526.50 L 361.80 528.10 L 356.10 529.30 L 350.10 530.00 L 344.00 530.20 L 337.90 530.00 L 331.90 529.30 L 326.20 528.10 L 320.70 526.50 L 315.20 524.40 L 310.00 522.00 L 305.10 519.20 L 300.40 516.00 L 295.90 512.40 L 291.80 508.60 L 287.90 504.50 L 284.40 500.00 L 281.20 495.30 L 278.40 490.30 L 276.00 485.20 L 273.90 479.70 L 272.30 474.20 L 271.10 468.40 L 270.40 462.50 L 270.20 456.40 L 270.40 450.30 L 271.10 444.30 L 272.30 438.60 L 273.90 433.00 L 276.00 427.60 L 278.40 422.40 L 281.20 417.50 L 284.40 412.80 L 287.90 408.30 L 291.80 404.20 L 295.90 400.30 L 300.40 396.80 L 305.10 393.60 L 310.00 390.80 L 315.20 388.40 L 320.70 386.30 L 326.20 384.70 L 331.90 383.50 L 337.90 382.80 L 344.00 382.50 L 350.10 382.80 L 356.10 383.50 L 361.80 384.70 L 367.30 386.30 L 372.80 388.40 L 378.00 390.80 L 382.90 393.60 L 387.60 396.80 L 392.10 400.30 L 396.20 404.20 L 400.10 408.30 L 403.60 412.80 L 406.80 417.50 L 409.60 422.40 L 412.00 427.60 L 414.10 433.00 L 415.70 438.60 L 416.90 444.30 L 417.60 450.30 L 417.80 456.40 Z" fill="#930027" fill-rule="evenodd" group-id="1,6,20,34" node-id="501" stroke="none" target-height="147.70001" target-width="147.59998" target-x="270.2" target-y="382.5"></path></g><path d="M 417.80 456.40 L 417.60 462.50 L 416.90 468.40 L 415.70 474.20 L 414.10 479.70 L 412.00 485.20 L 409.60 490.30 L 406.80 495.30 L 403.60 500.00 L 400.10 504.50 L 396.20 508.60 L 392.10 512.40 L 387.60 516.00 L 382.90 519.20 L 378.00 522.00 L 372.80 524.40 L 367.30 526.50 L 361.80 528.10 L 356.10 529.30 L 350.10 530.00 L 344.00 530.20 L 337.90 530.00 L 331.90 529.30 L 326.20 528.10 L 320.70 526.50 L 315.20 524.40 L 310.00 522.00 L 305.10 519.20 L 300.40 516.00 L 295.90 512.40 L 291.80 508.60 L 287.90 504.50 L 284.40 500.00 L 281.20 495.30 L 278.40 490.30 L 276.00 485.20 L 273.90 479.70 L 272.30 474.20 L 271.10 468.40 L 270.40 462.50 L 270.20 456.40 L 270.40 450.30 L 271.10 444.30 L 272.30 438.60 L 273.90 433.00 L 276.00 427.60 L 278.40 422.40 L 281.20 417.50 L 284.40 412.80 L 287.90 408.30 L 291.80 404.20 L 295.90 400.30 L 300.40 396.80 L 305.10 393.60 L 310.00 390.80 L 315.20 388.40 L 320.70 386.30 L 326.20 384.70 L 331.90 383.50 L 337.90 382.80 L 344.00 382.50 L 350.10 382.80 L 356.10 383.50 L 361.80 384.70 L 367.30 386.30 L 372.80 388.40 L 378.00 390.80 L 382.90 393.60 L 387.60 396.80 L 392.10 400.30 L 396.20 404.20 L 400.10 408.30 L 403.60 412.80 L 406.80 417.50 L 409.60 422.40 L 412.00 427.60 L 414.10 433.00 L 415.70 438.60 L 416.90 444.30 L 417.60 450.30 L 417.80 456.40 Z" fill="#000000" fill-rule="evenodd" filter="url(#filter-32)" group-id="1,6,20,35" node-id="506" stroke="none" target-height="147.70001" target-width="147.59998" target-x="270.2" target-y="382.5"></path></g><path d="M 380.90 456.40 L 380.20 463.90 L 378.00 470.80 L 375.90 475.00 L 373.20 478.90 L 370.10 482.50 L 366.60 485.60 L 362.70 488.20 L 358.40 490.40 L 351.50 492.50 L 344.00 493.30 L 336.50 492.50 L 329.60 490.40 L 325.30 488.20 L 321.40 485.60 L 317.90 482.50 L 314.80 478.90 L 312.10 475.00 L 310.00 470.80 L 307.80 463.90 L 307.30 460.20 L 307.10 456.40 L 307.30 452.60 L 308.70 445.40 L 310.00 442.00 L 312.10 437.70 L 314.80 433.80 L 317.90 430.30 L 321.40 427.10 L 325.30 424.50 L 329.60 422.40 L 336.50 420.20 L 344.00 419.50 L 351.50 420.20 L 358.40 422.40 L 362.70 424.50 L 366.60 427.10 L 370.10 430.30 L 373.20 433.80 L 375.90 437.70 L 378.00 442.00 L 380.20 448.90 L 380.90 456.40 Z" fill="#301502" fill-rule="evenodd" group-id="1,6" id="椭圆形" node-id="150" stroke="none" target-height="73.79999" target-width="73.79999" target-x="307.1" target-y="419.5"></path><path d="M 392.00 432.40 L 391.80 435.70 L 391.10 438.80 L 390.10 441.70 L 388.70 444.50 L 385.00 449.40 L 380.10 453.10 L 377.30 454.50 L 374.40 455.50 L 371.30 456.20 L 368.00 456.40 L 364.70 456.20 L 361.60 455.50 L 358.70 454.50 L 353.30 451.40 L 349.00 447.00 L 347.30 444.50 L 345.90 441.70 L 344.90 438.80 L 344.20 435.70 L 344.00 432.40 L 344.20 429.10 L 344.90 426.00 L 345.90 423.00 L 349.00 417.70 L 353.30 413.40 L 358.70 410.30 L 361.60 409.20 L 364.70 408.60 L 368.00 408.40 L 371.30 408.60 L 374.40 409.20 L 377.30 410.30 L 380.10 411.70 L 385.00 415.40 L 388.70 420.30 L 390.10 423.00 L 391.10 426.00 L 391.80 429.10 L 392.00 432.40 Z" fill="#ffffff" fill-rule="evenodd" group-id="1,6" id="椭圆形" node-id="151" stroke="none" target-height="48" target-width="48" target-x="344" target-y="408.4"></path><path d="M 334.80 488.70 L 334.50 491.40 L 333.70 494.00 L 332.40 496.40 L 330.70 498.50 L 328.60 500.20 L 326.20 501.50 L 323.60 502.30 L 320.90 502.50 L 318.20 502.30 L 315.60 501.50 L 313.20 500.20 L 311.10 498.50 L 309.40 496.40 L 308.10 494.00 L 307.30 491.40 L 307.10 488.70 L 307.30 486.00 L 308.10 483.40 L 309.40 481.00 L 311.10 478.90 L 313.20 477.20 L 315.60 475.90 L 318.20 475.10 L 320.90 474.80 L 323.60 475.10 L 326.20 475.90 L 328.60 477.20 L 330.70 478.90 L 332.40 481.00 L 333.70 483.40 L 334.50 486.00 L 334.80 488.70 Z" fill="#ffffff" fill-rule="evenodd" group-id="1,6" id="椭圆形备份-5" node-id="152" stroke="none" target-height="27.700012" target-width="27.699982" target-x="307.1" target-y="474.8"></path></g><path d="M 273.00 299.70 L 280.30 294.80 L 287.60 290.60 L 294.90 287.20 L 302.20 284.40 L 309.50 282.20 L 316.90 280.70 L 324.30 279.80 L 331.90 279.50 L 339.30 279.70 L 346.80 280.60 L 354.40 282.00 L 362.20 284.10 L 370.20 286.80 L 378.30 290.20 L 386.60 294.30 L 395.20 299.20 L 397.00 300.50 L 399.50 303.70 L 400.30 305.60 L 401.00 309.60 L 400.20 313.70 L 399.20 315.70 L 396.40 318.90 L 394.60 320.00 L 390.80 321.30 L 386.70 321.20 L 382.70 319.70 L 374.70 315.10 L 367.00 311.40 L 359.70 308.50 L 352.60 306.20 L 345.70 304.70 L 339.00 303.80 L 332.60 303.50 L 325.90 303.70 L 319.40 304.70 L 312.90 306.20 L 306.50 308.40 L 300.00 311.30 L 293.50 314.80 L 285.10 320.30 L 283.20 321.00 L 279.10 321.40 L 275.10 320.40 L 271.70 318.10 L 270.30 316.40 L 268.40 312.60 L 268.00 308.50 L 269.00 304.60 L 271.30 301.10 L 273.00 299.70 Z" fill="#a05400" fill-rule="nonzero" group-id="1" id="路径-2" node-id="153" stroke="none" target-height="41.899994" target-width="133" target-x="268" target-y="279.5"></path><path d="M 609.00 299.70 L 616.30 294.80 L 623.60 290.60 L 630.90 287.20 L 638.20 284.40 L 645.50 282.20 L 652.90 280.70 L 660.30 279.80 L 667.90 279.50 L 675.30 279.70 L 682.80 280.60 L 690.40 282.00 L 698.20 284.10 L 706.20 286.80 L 714.30 290.20 L 722.60 294.30 L 731.20 299.20 L 733.00 300.50 L 735.50 303.70 L 736.30 305.60 L 737.00 309.60 L 736.20 313.70 L 735.20 315.70 L 732.40 318.90 L 728.80 320.80 L 724.70 321.40 L 722.70 321.20 L 718.70 319.70 L 710.70 315.10 L 703.00 311.40 L 695.70 308.50 L 688.60 306.20 L 681.70 304.70 L 675.00 303.80 L 668.60 303.50 L 661.90 303.70 L 655.40 304.70 L 648.90 306.20 L 642.50 308.40 L 636.00 311.30 L 629.50 314.80 L 621.10 320.30 L 619.20 321.00 L 615.10 321.40 L 611.10 320.40 L 607.70 318.10 L 606.30 316.40 L 604.40 312.60 L 604.00 308.50 L 605.00 304.60 L 607.30 301.10 L 609.00 299.70 Z" fill="#a05400" fill-rule="nonzero" group-id="1" id="路径-2备份" node-id="154" stroke="none" target-height="41.899994" target-width="133" target-x="604" target-y="279.5"></path></g></svg>